HIERARCHY
ROOT Hips
{
	OFFSET 0.00000 0.00000 0.00000
	CHANNELS 6 Xposition Yposition Zposition Zrotation Yrotation Xrotation 
	JOINT LHipJoint
	{
		OFFSET 0 0 0
		CHANNELS 3 Zrotation Yrotation Xrotation
		JOINT LeftUpLeg
		{
			OFFSET 1.57358 -1.76629 0.73362
			CHANNELS 3 Zrotation Yrotation Xrotation
			JOINT LeftLeg
			{
				OFFSET 2.40600 -6.61045 0.00000
				CHANNELS 3 Zrotation Yrotation Xrotation
				JOINT LeftFoot
				{
					OFFSET 2.66168 -7.31291 0.00000
					CHANNELS 3 Zrotation Yrotation Xrotation
					JOINT LeftToeBase
					{
						OFFSET 0.20870 -0.57341 2.12506
						CHANNELS 3 Zrotation Yrotation Xrotation
						End Site
						{
							OFFSET 0.00000 -0.00000 1.10557
						}
					}
				}
			}
		}
	}
	JOINT RHipJoint
	{
		OFFSET 0 0 0
		CHANNELS 3 Zrotation Yrotation Xrotation
		JOINT RightUpLeg
		{
			OFFSET -1.49299 -1.76629 0.73362
			CHANNELS 3 Zrotation Yrotation Xrotation
			JOINT RightLeg
			{
				OFFSET -2.43663 -6.69460 0.00000
				CHANNELS 3 Zrotation Yrotation Xrotation
				JOINT RightFoot
				{
					OFFSET -2.62959 -7.22474 0.00000
					CHANNELS 3 Zrotation Yrotation Xrotation
					JOINT RightToeBase
					{
						OFFSET -0.25784 -0.70841 2.21862
						CHANNELS 3 Zrotation Yrotation Xrotation
						End Site
						{
							OFFSET -0.00000 -0.00000 1.16452
						}
					}
				}
			}
		}
	}
	JOINT LowerBack
	{
		OFFSET 0 0 0
		CHANNELS 3 Zrotation Yrotation Xrotation
		JOINT Spine
		{
			OFFSET -0.00034 2.12399 -0.25450
			CHANNELS 3 Zrotation Yrotation Xrotation
			JOINT Spine1
			{
				OFFSET 0.05594 2.14379 -0.03318
				CHANNELS 3 Zrotation Yrotation Xrotation
				JOINT Neck
				{
					OFFSET 0 0 0
					CHANNELS 3 Zrotation Yrotation Xrotation
					JOINT Neck1
					{
						OFFSET -0.09835 1.62725 0.24211
						CHANNELS 3 Zrotation Yrotation Xrotation
						JOINT Head
						{
							OFFSET 0.10849 1.66041 -0.22648
							CHANNELS 3 Zrotation Yrotation Xrotation
							End Site
							{
								OFFSET 0.04385 1.68267 -0.10541
							}
						}
					}
				}
				JOINT LeftShoulder
				{
					OFFSET 0 0 0
					CHANNELS 3 Zrotation Yrotation Xrotation
					JOINT LeftArm
					{
						OFFSET 3.29108 0.79398 -0.68179
						CHANNELS 3 Zrotation Yrotation Xrotation
						JOINT LeftForeArm
						{
							OFFSET 5.15310 -0.00000 -0.00000
							CHANNELS 3 Zrotation Yrotation Xrotation
							JOINT LeftHand
							{
								OFFSET 3.75138 -0.00000 -0.00000
								CHANNELS 3 Zrotation Yrotation Xrotation
								JOINT LeftFingerBase
								{
									OFFSET 0 0 0
									CHANNELS 3 Zrotation Yrotation Xrotation
									JOINT LeftHandIndex1
									{
										OFFSET 0.52917 -0.00000 0.00000
										CHANNELS 3 Zrotation Yrotation Xrotation
										End Site
										{
											OFFSET 0.42663 -0.00000 0.00000
										}
									}
								}
								JOINT LThumb
								{
									OFFSET 0 0 0
									CHANNELS 3 Zrotation Yrotation Xrotation
									End Site
									{
										OFFSET 0.43315 -0.00000 0.43315
									}
								}
							}
						}
					}
				}
				JOINT RightShoulder
				{
					OFFSET 0 0 0
					CHANNELS 3 Zrotation Yrotation Xrotation
					JOINT RightArm
					{
						OFFSET -3.07414 1.06285 -0.44338
						CHANNELS 3 Zrotation Yrotation Xrotation
						JOINT RightForeArm
						{
							OFFSET -5.29613 -0.00000 0.00000
							CHANNELS 3 Zrotation Yrotation Xrotation
							JOINT RightHand
							{
								OFFSET -3.76144 -0.00000 -0.00000
								CHANNELS 3 Zrotation Yrotation Xrotation
								JOINT RightFingerBase
								{
									OFFSET 0 0 0
									CHANNELS 3 Zrotation Yrotation Xrotation
									JOINT RightHandIndex1
									{
										OFFSET -0.74732 -0.00000 0.00000
										CHANNELS 3 Zrotation Yrotation Xrotation
										End Site
										{
											OFFSET -0.60251 -0.00000 0.00000
										}
									}
								}
								JOINT RThumb
								{
									OFFSET 0 0 0
									CHANNELS 3 Zrotation Yrotation Xrotation
									End Site
									{
										OFFSET -0.61171 -0.00000 0.61171
									}
								}
							}
						}
					}
				}
			}
		}
	}
}
MOTION
Frames: 13
Frame Time: 0.153846
0.00 0.00 0.00 0 0 0 0 0 0 -21 0 0 0 0 0 0 0 0 0 0 0 0 0 0 21 0 0 0 0 0 0 0 0 0 0 0 0 0 0 0 0 0 0 0 0 0 0 -16 0 0 21 0 0 11 0 0 0 -8 0 0 0 0 0 0 0 0 0 0 0 0 0 0 0 0 0 0 0 0 8 0 0 0 0 0 0 0 0 0 0 0 0 0 0 0 0 0
0.00 0.00 0.00 -2.0401 -2.0541 1.7496 0.0000 0.0000 0.0000 -17.5403 -9.4474 -23.1678 1.3333 7.3118 20.6426 0.0038 -1.4959 -1.4249 0.0533 -1.4902 -4.0987 0.0000 0.0000 0.0000 25.2195 0.9871 10.3887 -2.4173 -9.6860 27.9656 -0.0729 -0.2543 -5.1971 -0.7091 5.3819 -15.0011 1.4105 1.2491 5.0433 2.1536 1.8178 -0.2754 1.2875 0.8990 -3.1382 -9.1870 -4.2627 -15.4896 6.3083 -5.0796 20.9517 3.0651 -2.4087 9.5818 0.0000 0.0000 0.0000 -93.7865 4.3896 10.9791 11.1169 -18.4672 -1.8128 -0.0000 -0.0000 13.9472 14.1624 27.9263 6.7400 -7.1250 0.0000 -0.0000 -18.1220 57.7126 -5.7652 0.0000 0.0000 0.0000 86.2021 3.2431 14.0171 -17.2442 27.1786 -4.1983 0.0000 0.0000 6.7326 -13.2602 10.0528 -2.3555 7.1250 -0.0000 -0.0000 9.7602 -19.7316 5.9785
0.00 0.00 0.00 -0.2117 -1.7535 1.0377 0.0000 0.0000 0.0000 -21.1906 -6.6402 -20.1216 1.3844 7.4449 21.0403 -0.0784 -6.3547 -1.9166 0.0000 -0.0450 -0.1236 0.0000 0.0000 0.0000 21.7419 2.2835 2.7780 -5.4845 -13.9094 42.8759 -0.2797 -0.9142 9.7093 -0.1949 2.8428 -7.8414 0.0556 1.0086 5.5583 1.4478 1.3980 -0.2828 1.3433 0.7070 -3.4436 -9.2471 -4.3612 -15.3083 6.3843 -5.2405 20.9819 3.0824 -2.4841 9.5766 -0.0000 -0.0000 0.0000 -93.1674 4.1443 10.5403 11.1510 -18.5194 -1.8236 -0.0000 -0.0000 13.0451 14.1359 29.5697 7.0846 -7.1250 0.0000 -0.0000 -19.2727 59.2620 -6.8726 -0.0000 -0.0000 0.0000 87.9396 1.7625 9.9917 -16.2057 25.7988 -3.7351 0.0000 0.0000 9.2225 -13.2368 9.9790 -2.3342 7.1250 -0.0000 -0.0000 9.7792 -19.8074 5.9737
0.00 0.00 0.00 1.3197 -2.0277 -0.1741 0.0000 0.0000 0.0000 -24.3635 -4.0038 -14.9699 1.2439 7.0716 19.9277 -0.0726 -6.8019 -2.6824 0.0580 1.5545 4.2760 0.0000 0.0000 0.0000 18.8501 4.5004 -6.5548 -9.9786 -17.3978 59.4170 -0.5811 -4.5668 13.5737 -0.0010 0.2033 -0.5586 -1.3173 0.7392 6.1286 1.2013 0.9316 0.4154 1.8979 0.4886 -3.0492 -9.2451 -4.0063 -14.9918 5.7950 -4.5986 20.0888 2.9541 -2.2479 9.1377 -0.0000 0.0000 0.0000 -91.9613 2.5742 14.2174 11.6088 -19.2153 -1.9716 -0.0000 -0.0000 11.9690 14.4043 28.4485 6.9754 -7.1250 0.0000 -0.0000 -18.2138 58.2617 -6.0385 -0.0000 0.0000 0.0000 88.3744 1.4158 8.6867 -14.4549 23.3813 -3.0063 0.0000 0.0000 10.2026 -13.5506 13.8685 -3.3063 7.1250 -0.0000 -0.0000 9.4818 -15.8581 6.6225
0.00 0.00 0.00 3.4163 -0.0510 -1.0058 0.0000 0.0000 0.0000 -28.1668 -1.6999 -8.9924 1.4597 7.6359 21.6136 0.0784 -9.5714 -7.9994 0.1708 2.6626 7.3407 0.0000 0.0000 0.0000 15.3094 6.1173 -22.0843 -12.7736 -18.6989 68.4208 0.0541 -4.2168 -2.4777 -0.0243 -1.0073 2.7690 -3.9606 -0.6841 7.0215 1.4410 -1.1692 0.7287 3.8329 -0.5251 -3.0745 -9.3502 -3.1477 -16.2351 4.9853 -3.1188 22.0976 2.8997 -1.6639 9.9404 0.0000 -0.0000 0.0000 -90.3339 -2.4744 16.6938 12.2526 -20.1824 -2.1887 -0.0000 -0.0000 12.2697 15.0826 27.3325 7.0539 -7.1250 0.0000 -0.0000 -16.7972 57.3410 -5.1754 0.0000 -0.0000 0.0000 88.4886 0.0052 8.8885 -14.9737 24.1094 -3.2152 0.0000 0.0000 10.1781 -11.4880 11.2464 -2.2698 7.1250 -0.0000 -0.0000 10.9631 -18.6238 7.0173
0.00 0.00 0.00 4.5779 1.7082 -0.3929 0.0000 0.0000 0.0000 -29.9522 -0.3494 -6.3300 1.8462 8.5380 24.3605 0.2738 -12.5138 -12.0489 0.3754 3.9352 10.8944 0.0000 0.0000 0.0000 13.9958 8.9501 -29.2631 -8.2391 -16.2923 53.4194 -0.1930 -3.1285 -10.0600 -0.0688 1.6919 -4.6550 -5.5956 -1.6244 7.3075 1.5234 -2.5651 0.5514 4.9838 -1.1904 -3.2103 -9.2564 -3.5489 -16.2330 4.8219 -3.6762 22.2754 2.7509 -1.9357 10.0451 -0.0000 0.0000 0.0000 -88.2952 -5.8509 21.3400 14.1915 -23.0078 -2.9025 -0.0000 -0.0000 9.2356 16.2761 23.1909 6.5588 -7.1250 0.0000 -0.0000 -13.4003 53.5318 -2.8515 -0.0000 0.0000 0.0000 88.8466 -1.6008 8.7289 -15.5913 24.9634 -3.4717 0.0000 0.0000 8.2313 -11.7859 12.5315 -2.5922 7.1250 -0.0000 -0.0000 10.7152 -17.3215 7.1661
0.00 0.00 0.00 3.1073 5.3884 1.1720 0.0000 0.0000 0.0000 -25.3607 0.6732 3.0694 3.5633 11.5555 34.1770 -0.3792 -12.5496 11.3836 0.1642 -2.6106 -7.1965 0.0000 0.0000 0.0000 21.6347 9.7488 -19.2128 -1.4097 -7.5097 21.2346 0.0911 -5.3459 -2.0073 -0.4879 -4.4789 12.4281 -3.8244 -2.6090 6.0893 2.4865 -3.6647 0.0099 5.0323 -1.7542 -2.9985 -9.7353 -3.8659 -17.5921 5.0011 -3.9194 23.2955 2.8632 -2.0633 10.7109 0.0000 -0.0000 0.0000 -90.2856 -7.1055 20.2679 15.9622 -25.4694 -3.6297 -0.0000 -0.0000 9.4916 15.3906 24.1835 6.4339 -7.1250 0.0000 -0.0000 -14.7538 54.3447 -3.4448 0.0000 -0.0000 0.0000 89.4693 -2.6577 2.0871 -12.8937 21.1313 -2.4148 0.0000 0.0000 13.5409 -12.6590 8.9092 -1.9922 7.1250 -0.0000 -0.0000 10.2318 -20.9133 6.0002
0.00 0.00 0.00 0.4612 5.5462 0.5230 0.0000 0.0000 0.0000 -20.5485 -0.9845 -4.4913 6.4617 14.8613 46.8078 0.8419 -13.4186 26.8720 0.2770 -3.3851 -9.3527 0.0000 0.0000 0.0000 25.6612 6.4765 -13.3730 -0.8218 -5.7841 16.1593 0.0403 -3.5583 -1.3898 -0.1839 -2.7618 7.6163 -1.1718 -2.2661 6.2356 3.1938 -2.9935 0.0296 4.2298 -1.4488 -3.2328 -10.1739 -3.9847 -16.4985 5.6658 -4.2397 22.8820 3.1345 -2.1789 10.4024 0.0000 -0.0000 0.0000 -90.9412 -5.3964 20.6694 15.1421 -24.3436 -3.2843 -0.0000 -0.0000 9.9537 15.0213 24.3094 6.3039 -7.1250 0.0000 -0.0000 -15.1864 54.3981 -3.5693 0.0000 -0.0000 0.0000 88.7813 -2.9567 4.9260 -12.7897 20.9783 -2.3775 0.0000 0.0000 12.8160 -13.8143 13.8937 -3.3790 7.1250 -0.0000 -0.0000 9.3018 -15.8129 6.5024
0.00 0.00 0.00 -1.9598 2.1369 0.1348 0.0000 0.0000 0.0000 -15.0518 -0.2269 -17.6113 11.2099 18.0363 63.4614 0.0878 -9.8825 15.4378 0.2270 -3.0668 -8.4647 0.0000 0.0000 0.0000 29.5763 1.8693 -0.3669 0.0000 -0.0000 0.0000 -0.0357 -1.2290 3.3511 -0.1014 -2.0533 5.6531 0.9598 -0.5052 7.0591 3.6948 -0.4458 0.0627 3.3398 -0.2052 -3.8760 -10.1524 -4.0741 -15.8287 5.9812 -4.5201 22.8225 3.2104 -2.2774 10.2840 -0.0000 -0.0000 0.0000 -91.3617 -3.2110 19.5407 14.6152 -23.6073 -3.0702 -0.0000 -0.0000 11.3671 19.0397 29.6432 9.6863 -7.1250 0.0000 -0.0000 -14.0586 60.4781 -5.3681 -0.0000 -0.0000 0.0000 87.6292 -0.9405 9.0028 -13.3860 21.8501 -2.5952 0.0000 0.0000 12.9060 -14.5955 14.1615 -3.6453 7.1250 -0.0000 -0.0000 8.7686 -15.4806 6.1839
0.00 0.00 0.00 -2.5497 -0.7253 0.5698 0.0000 0.0000 0.0000 -13.1627 -2.7752 -27.4201 11.6517 18.2395 64.8803 -0.0019 -0.9532 -0.2317 0.0712 -1.7217 -4.7371 0.0000 0.0000 0.0000 30.4365 3.2660 -1.3127 -0.2989 -3.5153 9.7167 -0.0815 0.9962 -5.1341 -0.3498 -3.7999 10.5143 2.0719 0.6362 7.7026 3.2948 1.1691 0.2452 2.1231 0.5705 -4.0976 -9.3639 -3.4053 -16.8165 6.0419 -3.6907 22.4320 3.2049 -1.7998 10.2338 0.0000 0.0000 0.0000 -91.3526 -0.7371 17.9548 15.1904 -24.4107 -3.3042 -0.0000 -0.0000 8.1020 13.8584 30.6645 7.1714 -7.1250 0.0000 -0.0000 -20.3884 60.2224 -7.7617 0.0000 0.0000 0.0000 87.0326 2.4531 13.5309 -15.1056 24.2931 -3.2693 0.0000 0.0000 8.4795 -14.3764 11.6406 -2.9606 7.1250 -0.0000 -0.0000 8.9376 -18.0583 5.7979
0.00 0.00 0.00 -3.3950 -1.0984 1.0645 0.0000 0.0000 0.0000 -11.0398 -9.0960 -30.1187 7.1580 15.4635 49.4692 0.1532 2.6629 -8.8744 0.1755 -2.6987 -7.4410 0.0000 0.0000 0.0000 31.3334 2.5884 -0.7641 -0.7335 -5.4718 15.2592 -0.3687 2.2319 -10.9142 -0.1000 -2.0388 5.6129 3.6353 0.7988 8.0159 3.1147 1.5278 0.3567 1.0150 0.7159 -4.1204 -9.4269 -3.4848 -17.1489 6.0296 -3.7370 22.1517 3.1978 -1.8194 10.2017 0.0000 0.0000 0.0000 -91.3673 0.3671 15.6637 13.4678 -21.9688 -2.6257 -0.0000 -0.0000 10.8335 16.2784 28.6941 7.9811 -7.1250 0.0000 -0.0000 -16.4080 58.9135 -5.6758 0.0000 0.0000 0.0000 85.9903 4.8537 18.9613 -18.1659 28.3691 -4.6278 0.0000 0.0000 4.5928 -14.2083 11.4941 -2.8883 7.1250 -0.0000 -0.0000 9.0574 -18.2177 5.8453
0.00 0.00 0.00 4.7181 -9.5443 2.6114 0.0000 0.0000 0.0000 -24.1881 -3.5304 -10.2165 1.7803 8.3926 23.9131 0.6038 2.3052 -15.6939 0.0018 -0.2772 -0.7617 0.0000 0.0000 0.0000 17.3831 1.9868 -33.6452 -2.8609 -10.4664 30.5006 0.1176 -10.0791 -12.2394 -0.1117 2.1550 -5.9342 -5.3685 -1.0055 8.0226 1.1493 -1.7825 0.2739 4.4211 -0.7737 -4.0183 -9.0332 -4.5533 -17.6390 6.3050 -5.4752 23.3195 2.9866 -2.5619 10.8725 -0.0000 -0.0000 0.0000 -84.5511 -9.5404 20.0806 14.4000 -23.3037 -2.9845 -0.0000 -0.0000 8.1220 16.7800 25.9416 7.5144 -7.1250 0.0000 -0.0000 -14.2446 56.3434 -4.0195 -0.0000 -0.0000 0.0000 89.0441 -1.6918 9.9858 -16.0834 25.6336 -3.6820 0.0000 0.0000 8.1336 -14.4764 12.1394 -3.1077 7.1250 -0.0000 -0.0000 8.8612 -17.5446 5.8485
0.00 0.00 0.00 -154.3290 -81.0293 160.3300 0.0000 0.0000 0.0000 -6.7834 -19.0440 -30.0810 2.0867 9.0445 25.9345 0.1098 3.0287 -8.1288 0.3761 3.9389 10.9049 0.0000 0.0000 0.0000 30.2608 1.0446 21.9724 0.0000 -0.0000 0.0000 0.2775 10.6640 -1.6797 -0.2157 -2.9902 8.2515 4.5760 0.7586 7.5808 3.4825 1.4659 0.1414 0.8867 0.6305 -4.0859 -9.0843 -3.9507 -15.3911 5.8585 -5.2425 25.5722 2.8981 -2.7225 11.2341 0.0000 -0.0000 0.0000 -87.9793 -2.6700 10.9995 15.7165 -25.1348 -3.5247 -0.0000 -0.0000 7.6042 19.4950 25.0916 8.5380 -7.1250 0.0000 -0.0000 -10.9977 56.0558 -3.0084 0.0000 -0.0000 0.0000 86.1407 -0.0544 22.8214 -17.4728 27.4768 -4.3032 0.0000 0.0000 3.1760 -14.7108 10.1677 -2.6536 7.1250 -0.0000 -0.0000 8.7304 -19.5374 5.3703
